<?xml version="1.0" standalone="no"?>
<!DOCTYPE svg PUBLIC "-//W3C//DTD SVG 20010904//EN"
 "http://www.w3.org/TR/2001/REC-SVG-20010904/DTD/svg10.dtd">
<svg version="1.0" xmlns="http://www.w3.org/2000/svg"
 width="300.000000pt" height="144.000000pt" viewBox="0 0 300.000000 144.000000"
 preserveAspectRatio="xMidYMid meet">
<metadata>
Created by potrace 1.10, written by Peter Selinger 2001-2011
</metadata>
<g transform="translate(0.000000,144.000000) scale(0.050000,-0.050000)"
fill="#0000ff" stroke="none">
<path d="M3240 2742 c-16 -9 -145 -55 -285 -103 l-255 -86 0 -72 c0 -39 -10
-125 -21 -191 -12 -66 -25 -151 -30 -190 l-9 -70 82 90 82 90 -67 -87 c-37
-47 -86 -113 -110 -146 -23 -32 -47 -64 -54 -71 -13 -13 4 229 20 274 6 17 15
64 20 105 5 41 21 116 36 166 33 110 62 99 -319 129 -165 13 -310 27 -322 30
-22 7 -63 -115 -220 -658 -85 -293 -81 -312 79 -312 l79 0 -13 -367 -13 -367
225 -71 c492 -156 432 -146 650 -110 649 107 1057 181 1072 195 9 9 16 152 14
318 l-3 302 60 0 c39 0 68 14 81 39 28 51 31 43 -59 143 -44 48 -129 174 -190
278 -151 263 -461 747 -483 754 -9 2 -30 -3 -47 -12z m-116 -317 c-179 -230
-182 -295 -13 -316 127 -16 149 -5 149 72 0 59 0 59 -121 59 -76 0 -117 8
-109 20 7 11 30 20 51 20 30 0 39 14 39 57 0 122 68 136 134 29 157 -253 226
-369 226 -379 0 -10 -501 10 -580 23 -16 3 -43 -5 -60 -18 -35 -26 -27 -14 79
124 36 47 61 90 56 96 -6 6 -67 -62 -135 -151 -110 -142 -220 -217 -220 -150
0 51 631 787 636 742 5 -37 -29 -96 -132 -228z m464 -192 c129 -207 231 -381
226 -385 -22 -22 -69 22 -126 118 -35 57 -136 220 -225 362 -96 151 -163 279
-163 309 0 64 -22 94 288 -404z m-272 279 c12 -27 71 -128 131 -225 60 -97
111 -186 114 -197 3 -11 16 -29 30 -40 13 -11 40 -47 60 -80 21 -34 24 -49 9
-35 -16 14 -48 25 -72 25 -35 0 -78 53 -206 257 -172 273 -175 282 -138 319
34 34 47 30 72 -24z m-967 -422 c120 -176 223 -324 229 -330 36 -30 126 -183
115 -194 -17 -17 -17 -17 -197 234 -270 376 -456 664 -456 705 0 33 9 27 46
-27 25 -37 144 -212 263 -388z m-451 3 c-162 -507 -179 -489 -27 27 67 229
124 393 134 383 11 -11 -35 -185 -107 -410z m1070 391 c-11 -8 -36 -36 -54
-63 -19 -28 -34 -39 -34 -25 0 13 -13 24 -30 24 -25 0 -24 6 5 37 19 20 45 33
58 28 13 -4 29 2 37 15 8 12 20 17 26 10 7 -7 4 -18 -8 -26z m-488 -88 c17 -4
40 -14 53 -22 13 -8 28 -3 34 11 6 15 10 11 11 -10 1 -19 -7 -35 -18 -35 -11
0 -20 -22 -20 -49 0 -111 -34 -156 -90 -119 -28 18 -47 37 -43 42 5 5 -21 37
-57 71 -109 104 -50 155 130 111z m382 -62 c-10 -10 -15 -30 -10 -43 6 -14 -2
-35 -18 -47 -22 -19 -25 -12 -18 36 5 36 0 60 -14 60 -12 0 -22 -21 -22 -48 0
-26 -15 -59 -33 -74 -29 -24 -31 -23 -22 12 6 22 17 66 24 97 9 39 22 53 42
45 16 -6 29 -1 29 11 0 14 11 13 31 -4 20 -16 24 -32 11 -45z m-752 -54 c0
-19 -23 -32 -65 -36 -69 -7 -72 -5 -52 45 16 42 117 34 117 -9z m100 -125 c31
-47 131 -190 223 -319 l168 -234 -6 -409 -5 -409 -80 26 c-44 15 -187 60 -318
101 l-238 74 13 452 14 453 74 175 c85 203 82 201 155 90z m-130 57 c0 -40
-33 -72 -72 -72 -35 0 -48 11 -48 40 0 31 13 40 60 40 33 0 60 -4 60 -8z m-55
-104 c25 -25 -11 -68 -57 -68 -45 0 -64 37 -35 67 17 16 76 17 92 1z m-55
-128 c0 -17 -20 -33 -45 -36 -49 -7 -51 -4 -32 45 15 40 77 32 77 -9z m819
-68 c-41 -63 -67 -72 -151 -52 l-68 16 82 2 c54 1 94 15 118 42 49 54 58 50
19 -8z m83 13 c-9 -28 2 -36 53 -40 172 -13 216 -21 240 -41 17 -14 37 -15 56
-3 47 30 99 23 86 -11 -6 -16 -2 -30 9 -30 11 0 25 14 32 31 8 23 25 28 57 18
111 -35 108 -35 75 -11 -26 19 -26 21 3 22 19 0 38 -11 44 -25 6 -15 11 -10
11 11 1 20 11 31 21 25 11 -7 14 -28 8 -47 -7 -22 -5 -26 7 -10 10 14 28 17
44 7 14 -9 46 -12 69 -6 43 10 43 10 3 -22 -22 -17 -58 -32 -80 -33 -33 0 -35
-4 -10 -20 18 -12 20 -20 6 -20 -13 0 -29 9 -36 20 -7 11 -23 20 -36 20 -14 0
-12 -8 6 -20 26 -17 -205 -33 -322 -22 -17 2 -71 -13 -120 -34 -99 -41 -238
-56 -238 -25 0 12 -13 21 -30 21 -16 0 -30 9 -30 19 0 11 -13 15 -30 8 -21 -8
-30 2 -30 33 0 31 -9 41 -29 33 -54 -21 -50 21 4 49 30 15 77 53 104 83 60 64
67 67 53 20z m-928 -36 c29 -28 -11 -89 -58 -89 -38 0 -47 8 -38 32 7 17 12
40 12 50 0 19 66 25 84 7z m-4 -169 c0 -32 -13 -40 -70 -40 -75 0 -76 1 -58
48 19 50 128 43 128 -8z m2046 -122 c-14 -14 -187 -30 -449 -41 -235 -10 -456
-23 -492 -29 l-65 -10 0 -146 c0 -280 19 -387 68 -377 41 7 42 16 35 264 l-7
255 152 4 152 4 0 -300 0 -300 -75 -14 c-41 -7 -205 -38 -365 -69 -159 -30
-291 -54 -292 -52 -27 32 -17 769 10 745 18 -16 64 -32 102 -35 l70 -7 6 -267
c5 -265 6 -267 50 -255 24 6 53 12 64 12 16 0 13 241 -8 515 -1 17 -38 25
-112 25 -80 0 -110 7 -110 28 0 37 124 48 609 51 219 1 403 6 408 12 5 5 68 9
140 9 96 0 125 -6 109 -22z m-146 -97 c0 -41 -35 -50 -295 -68 -121 -9 -125
-8 -125 38 0 44 9 48 125 54 302 17 295 18 295 -24z m0 -138 c0 -55 -5 -58
-115 -70 -63 -6 -158 -18 -210 -25 l-95 -13 0 71 0 72 135 7 c74 4 169 9 210
11 70 4 75 0 75 -53z m0 -170 c0 -78 -9 -81 -267 -105 l-153 -14 0 73 c0 87
32 98 335 110 84 3 85 2 85 -64z m-10 -133 c-7 -11 -2 -20 10 -20 13 0 20 -20
16 -45 -5 -40 -28 -49 -216 -86 l-210 -40 -6 78 c-8 96 -21 88 156 104 83 8
154 17 158 21 19 18 103 6 92 -12z m-1490 -230 c149 -48 252 -88 230 -87 -22
0 -170 44 -330 98 -159 53 -263 93 -230 88 33 -6 182 -50 330 -99z m1010 31
c-51 -22 -628 -122 -681 -119 -53 4 586 133 661 134 50 1 54 -1 20 -15z"/>
<path d="M3160 2310 c0 -43 8 -52 45 -46 30 4 45 20 45 46 0 26 -15 42 -45 46
-37 6 -45 -3 -45 -46z"/>
<path d="M2200 1722 l-150 -12 0 -338 0 -338 165 -41 c90 -22 168 -37 172 -32
28 31 21 768 -7 770 -16 1 -97 -3 -180 -9z m176 -357 l-5 -335 -6 265 -6 265
-70 0 -69 0 0 -270 c0 -211 -6 -270 -27 -270 -17 0 -24 20 -20 55 3 30 9 152
13 270 l7 215 -56 0 -56 0 -6 -215 c-6 -199 -7 -195 -8 55 -1 149 2 249 7 223
7 -37 19 -44 53 -35 23 6 86 12 138 12 170 0 135 76 -40 85 l-135 7 145 4 145
4 -4 -335z"/>
<path d="M509 431 c-98 -99 11 -255 132 -190 46 24 52 99 9 99 -16 0 -30 -13
-30 -29 0 -67 -65 -51 -88 22 -19 60 37 114 88 87 24 -13 42 -13 49 -1 12 19
-48 61 -89 61 -12 0 -44 -22 -71 -49z"/>
<path d="M724 467 c-20 -8 -20 -17 -2 -39 13 -17 19 -61 13 -106 -10 -76 -9
-79 57 -91 77 -14 108 -3 108 40 0 35 -24 37 -54 7 -55 -55 -80 36 -44 161 8
30 -34 46 -78 28z"/>
<path d="M975 459 c-125 -74 -44 -288 84 -220 80 43 97 221 20 221 -9 0 -28 4
-42 9 -15 6 -43 1 -62 -10z m87 -66 c25 -55 -8 -141 -48 -128 -41 14 -64 109
-35 144 36 43 58 39 83 -16z"/>
<path d="M1585 455 c-88 -42 -77 -196 15 -225 116 -37 196 148 96 219 -51 36
-51 36 -111 6z m91 -100 c5 -56 -2 -79 -27 -88 -40 -15 -68 24 -69 95 0 111
87 105 96 -7z"/>
<path d="M1938 464 c-1 -8 0 -51 2 -97 3 -91 -25 -124 -73 -85 -22 19 -28 48
-21 102 9 71 7 76 -40 76 -43 0 -47 -5 -26 -30 13 -16 21 -57 16 -91 -17 -110
152 -159 173 -52 28 143 28 170 0 181 -16 6 -30 4 -31 -4z"/>
<path d="M2051 449 c-44 -45 -39 -60 31 -110 44 -31 55 -50 40 -65 -16 -16
-29 -15 -46 2 -33 33 -56 30 -56 -6 0 -40 93 -61 130 -30 46 38 36 92 -25 137
-30 22 -48 47 -40 55 9 8 26 5 39 -8 32 -32 56 -30 56 4 0 26 -40 52 -80 52
-10 0 -31 -14 -49 -31z"/>
<path d="M2318 464 c-13 -94 2 -234 25 -234 15 0 27 21 27 50 1 37 13 52 47
57 40 5 45 -1 40 -50 -6 -45 1 -57 30 -57 32 0 38 17 40 115 3 104 -1 115 -39
115 -30 0 -41 -12 -40 -44 1 -27 -12 -48 -33 -52 -26 -5 -35 6 -35 42 0 43
-57 96 -62 58z"/>
<path d="M2626 460 c-89 -36 -78 -201 14 -230 116 -37 196 148 96 219 -51 35
-50 35 -110 11z m85 -68 c19 -75 3 -122 -41 -122 -41 0 -65 81 -42 142 17 45
70 32 83 -20z"/>
<path d="M3375 458 c-49 -28 -44 -68 15 -114 76 -60 68 -106 -11 -63 -30 16
-39 14 -39 -9 0 -40 70 -59 119 -32 57 30 52 96 -9 124 -27 12 -50 34 -50 49
0 32 32 36 50 7 7 -12 22 -15 32 -9 58 36 -47 82 -107 47z"/>
<path d="M3655 466 c-55 -14 -45 -102 15 -130 28 -12 50 -34 50 -49 0 -31 -52
-36 -70 -7 -16 26 -50 26 -50 1 0 -31 78 -64 119 -51 79 25 71 110 -13 148
-38 18 -46 30 -30 46 16 16 31 15 53 -3 26 -21 31 -21 31 4 0 24 -51 64 -67
53 -1 -2 -19 -7 -38 -12z"/>
<path d="M3866 460 c-89 -36 -78 -201 14 -230 116 -37 196 148 96 219 -51 35
-50 35 -110 11z m73 -49 c38 -46 19 -141 -29 -141 -29 0 -42 15 -46 57 -12
102 25 144 75 84z"/>
<path d="M4074 465 c-29 -7 -31 -14 -12 -37 14 -17 19 -60 13 -107 -10 -70 -6
-79 39 -90 64 -16 126 4 126 40 0 35 -24 37 -54 7 -42 -42 -71 3 -61 95 11 94
5 104 -51 92z"/>
<path d="M4268 468 c-21 -9 -20 -49 3 -162 26 -129 189 -86 189 49 0 67 5 75
51 75 49 0 51 -5 46 -100 -5 -88 0 -101 36 -106 38 -5 40 2 31 107 -9 111 -8
113 33 90 35 -18 43 -17 43 8 0 25 -28 31 -148 31 l-148 0 10 -76 c7 -56 1
-83 -23 -104 -47 -38 -73 5 -67 109 5 76 -10 97 -56 79z"/>
<path d="M4917 467 c-84 -23 -92 -181 -13 -226 119 -67 224 129 112 208 -25
17 -50 30 -55 29 -6 -2 -26 -7 -44 -11z m81 -72 c21 -55 -2 -123 -44 -131 -37
-8 -62 61 -45 127 15 61 67 64 89 4z"/>
<path d="M5395 458 c-51 -29 -43 -95 15 -122 28 -12 50 -34 50 -49 0 -31 -52
-36 -70 -7 -16 26 -50 26 -50 1 0 -39 83 -66 133 -43 67 30 60 94 -15 133 -45
23 -56 39 -41 54 15 15 30 14 52 -4 26 -21 31 -21 31 4 0 48 -52 64 -105 33z"/>
<path d="M1170 356 c0 -58 8 -112 18 -119 33 -24 68 5 58 49 l-9 44 40 -45
c48 -55 125 -66 80 -12 -15 19 -27 66 -27 105 0 70 -3 72 -80 78 l-80 6 0
-106z"/>
<path d="M1410 350 c0 -103 13 -125 62 -105 38 15 17 215 -22 215 -35 0 -40
-13 -40 -110z"/>
<path d="M2830 350 c0 -77 8 -110 26 -110 19 0 22 20 12 73 -10 52 -7 69 9 59
13 -8 23 -26 23 -39 0 -82 56 -102 86 -33 l31 70 1 -65 c4 -127 72 -84 72 45
0 131 -47 152 -102 45 l-34 -64 -31 64 c-50 106 -93 85 -93 -45z"/>
<path d="M3130 355 c0 -117 96 -175 170 -102 27 27 23 30 -30 24 -44 -5 -61 2
-66 29 -5 26 3 35 27 30 19 -3 39 5 44 19 5 15 -9 25 -35 25 -26 0 -40 10 -34
25 4 14 28 23 51 20 24 -2 43 4 43 15 0 11 -38 20 -85 20 l-85 0 0 -105z"/>
<path d="M4730 350 c0 -103 13 -125 62 -105 38 15 17 215 -22 215 -35 0 -40
-13 -40 -110z"/>
<path d="M5110 350 c0 -127 44 -155 54 -35 l6 75 47 -75 c59 -96 83 -95 83 3
0 43 5 93 12 110 8 21 1 32 -19 32 -25 0 -29 -14 -20 -60 7 -33 4 -60 -7 -60
-10 0 -38 27 -63 60 -67 91 -93 77 -93 -50z"/>
</g>
</svg>
